<?xml version="1.0" encoding="UTF-8"?>
<svg width="91px" height="33px" viewBox="0 0 91 33" version="1.1" xmlns="http://www.w3.org/2000/svg" xmlns:xlink="http://www.w3.org/1999/xlink">
    <!-- Generator: Sketch 52.6 (67491) - http://www.bohemiancoding.com/sketch -->
    <title>Logo</title>
    <desc>Created with Sketch.</desc>
    <g id="Page-1" stroke="none" stroke-width="1" fill="none" fill-rule="evenodd">
        <g id="Page" transform="translate(-60.000000, -33.000000)" fill="#FFFFFF">
            <g id="Header">
                <path d="M76.589137,34.8032787 L74.5379856,38.9868852 C72.7147307,37.9530003 70.9634728,37.4360656 69.2841591,37.4360656 C67.5088847,37.4360656 66.6212608,38.0491742 66.6212608,39.2754098 C66.6212608,39.7562866 66.7651998,40.1830582 67.0530821,40.5557377 C67.3409645,40.9284172 67.844751,41.3792323 68.5644569,41.9081967 L72.9186555,45.0098361 C74.4300378,46.0677649 75.5215753,47.1376995 76.1933008,48.2196721 C76.8650262,49.3016448 77.2008839,50.575949 77.2008839,52.042623 C77.2008839,54.374875 76.4452041,56.1721248 74.9338218,57.4344262 C73.4224395,58.6967276 71.3233289,59.3278689 68.6364271,59.3278689 C67.0770644,59.3278689 65.5537098,59.1114776 64.0663177,58.6786885 C62.5789256,58.2458995 61.2235,57.6568343 60,56.9114754 L62.0871365,52.6918033 C63.1427051,53.3409869 64.2462376,53.8639324 65.3977669,54.2606557 C66.5492963,54.657379 67.6768185,54.8557377 68.7803675,54.8557377 C69.9318969,54.8557377 70.8195208,54.6213138 71.4432659,54.152459 C72.0670109,53.6836042 72.3788788,53.0644847 72.3788788,52.295082 C72.3788788,51.7180299 72.1869601,51.1710408 71.803117,50.6540984 C71.4192739,50.1371559 70.7715483,49.5541016 69.8599209,48.904918 L65.7576181,45.947541 C64.4381573,45.0098314 63.4485766,44.0120271 62.7888462,42.9540984 C62.1291159,41.8961696 61.7992556,40.7060175 61.7992556,39.3836066 C61.7992556,37.412012 62.4649736,35.855197 63.7964294,34.7131148 C65.1278852,33.5710325 66.9691051,33 69.3201442,33 C71.7191637,33 74.1421371,33.6010869 76.589137,34.8032787 L76.589137,34.8032787 Z M84.1174343,40.6459016 C84.1174343,41.3912606 84.0574597,41.9562822 83.9375087,42.3409836 L84.0454641,42.4131148 C84.1894052,42.2928956 84.3753265,42.2147543 84.6032333,42.1786885 C84.8311402,42.1426228 85.1490055,42.1245902 85.5568388,42.1245902 L87.3201093,42.1245902 L87.3201093,46.0557377 L85.5568388,46.0557377 C85.1250153,46.0557377 84.8011525,46.0377051 84.5852408,46.0016393 C84.369329,45.9655736 84.1894052,45.899454 84.0454641,45.8032787 L83.9375087,45.8754098 C84.0094793,46.1158482 84.057459,46.4043699 84.0814492,46.7409836 C84.1054394,47.0775973 84.1174343,47.4622929 84.1174343,47.895082 L84.1174343,58.7868852 L79.6912654,58.7868852 L79.6912654,47.895082 C79.6912654,47.4622929 79.7032603,47.0775973 79.7272505,46.7409836 C79.7512407,46.4043699 79.8112153,46.1158482 79.9071761,45.8754098 L79.7992207,45.8032787 C79.6312894,45.899454 79.4453682,45.9655736 79.2414515,46.0016393 C79.0375348,46.0377051 78.7076746,46.0557377 78.2518609,46.0557377 L76.8124564,46.0557377 L76.8124564,42.1245902 L78.2518609,42.1245902 C78.6836844,42.1245902 79.0135446,42.1426228 79.2414515,42.1786885 C79.4693584,42.2147543 79.6552796,42.2928956 79.7992207,42.4131148 L79.9071761,42.3409836 C79.7632349,41.9562822 79.6912654,41.3912606 79.6912654,40.6459016 L79.6912654,36.0655738 L83.7575832,33.2163934 L84.1174343,33.2163934 L84.1174343,40.6459016 Z M100.354129,43.1704918 C101.529648,44.2284206 102.117399,45.9355073 102.117399,48.2918033 L102.117399,58.7868852 L97.6552454,58.7868852 C97.6552454,57.656825 97.8351692,56.6710425 98.1950221,55.8295082 L98.0510816,55.757377 C96.8275817,58.1377168 94.9203898,59.3278689 92.3294487,59.3278689 C90.5541743,59.3278689 89.1207816,58.7929015 88.0292277,57.7229508 C86.9376738,56.6530001 86.3919051,55.2404459 86.3919051,53.4852459 C86.3919051,51.7300459 86.9376738,50.3295134 88.0292277,49.2836066 C89.1207816,48.2376997 90.5781641,47.7147541 92.4014189,47.7147541 C93.6489091,47.7147541 94.746444,47.9611997 95.6940568,48.4540984 C96.6416695,48.946997 97.4033467,49.6622904 97.9791114,50.6 L98.1230519,50.5278689 C97.9311303,49.9508168 97.835171,49.1333386 97.835171,48.0754098 C97.7871906,47.2098317 97.4453354,46.5486362 96.8095953,46.0918033 C96.1738551,45.6349704 95.2922286,45.4065574 94.1646895,45.4065574 C92.8692189,45.4065574 91.2259152,45.6469921 89.234729,46.1278689 L88.3710863,42.4131148 C90.5302039,41.8601065 92.6173195,41.5836066 94.6324959,41.5836066 C97.2714174,41.5836066 99.1786093,42.112563 100.354129,43.1704918 L100.354129,43.1704918 Z M91.9336125,51.4655738 C91.381838,51.9464505 91.1059549,52.5715809 91.1059549,53.3409836 C91.1059549,54.1103864 91.3758405,54.7295059 91.9156199,55.1983607 C92.4553993,55.6672155 93.1690969,55.9016393 94.0567341,55.9016393 C94.9683615,55.9016393 95.7120464,55.6612046 96.2878111,55.1803279 C96.8635758,54.6994511 97.1514538,54.0743208 97.1514538,53.304918 C97.1514538,52.5595591 96.8695733,51.9464505 96.3058037,51.4655738 C95.7420341,50.984697 95.0043467,50.7442623 94.0927192,50.7442623 C93.205082,50.7442623 92.485387,50.984697 91.9336125,51.4655738 L91.9336125,51.4655738 Z M104.427855,42.1245902 L108.782054,42.1245902 C108.782054,43.3989135 108.65011,44.565022 108.386218,45.6229508 L108.530158,45.695082 C109.081933,44.2764956 109.79563,43.2366153 110.671272,42.5754098 C111.546915,41.9142043 112.692429,41.5836066 114.107851,41.5836066 C116.818743,41.5836066 118.510026,42.9300412 119.181752,45.6229508 L119.325692,45.6229508 C119.733525,44.3726713 120.417236,43.3868889 121.376843,42.6655738 C122.336451,41.9442587 123.523948,41.5836066 124.93937,41.5836066 C126.690654,41.5836066 128.058074,42.1305956 129.041672,43.2245902 C130.02527,44.3185847 130.517062,45.9234867 130.517062,48.0393443 L130.517062,58.7868852 L126.090893,58.7868852 L126.090893,49.4819672 C126.090893,48.1355124 125.839,47.1557408 125.335206,46.542623 C124.831412,45.9295051 124.075732,45.6229508 123.068144,45.6229508 C120.765085,45.6229508 119.613573,47.2699289 119.613573,50.5639344 L119.613573,58.7868852 L115.331344,58.7868852 L115.331344,49.4459016 C115.331344,48.0994468 115.073454,47.1256861 114.557665,46.5245902 C114.041875,45.9234943 113.280198,45.6229508 112.27261,45.6229508 C109.969551,45.6229508 108.818039,47.2699289 108.818039,50.5639344 L108.818039,58.7868852 L104.427855,58.7868852 L104.427855,42.1245902 Z M147.185578,42.7016393 C148.385088,43.4469983 149.320691,44.4928894 149.992417,45.8393443 C150.664142,47.1857991 151,48.7245815 151,50.4557377 C151,52.2109377 150.67014,53.755731 150.010409,55.0901639 C149.350679,56.4245968 148.42707,57.4644771 147.239556,58.2098361 C146.052041,58.955195 144.690618,59.3278689 143.155245,59.3278689 C141.739824,59.3278689 140.504347,58.9852493 139.448779,58.3 C138.39321,57.6147507 137.589551,56.6109356 137.037776,55.2885246 L136.893836,55.3245902 C137.109748,56.3584751 137.217702,57.4885185 137.217702,58.7147541 L137.217702,66 L132.863503,66 L132.863503,42.1245902 L137.181717,42.1245902 C137.181717,43.5672203 137.073762,44.7213071 136.857851,45.5868852 L137.001791,45.6229508 C138.297262,42.9300412 140.336398,41.5836066 143.11926,41.5836066 C144.630643,41.5836066 145.986068,41.9562804 147.185578,42.7016393 L147.185578,42.7016393 Z M138.405211,46.957377 C137.517573,47.846999 137.073761,49.0131075 137.073761,50.4557377 C137.073761,51.8983679 137.517573,53.0644764 138.405211,53.9540984 C139.292848,54.8437203 140.44436,55.2885246 141.859781,55.2885246 C143.275203,55.2885246 144.384733,54.855742 145.188404,53.9901639 C145.992076,53.1245858 146.393906,51.9464555 146.393906,50.4557377 C146.393906,48.9650199 145.986078,47.7868896 145.170412,46.9213115 C144.354745,46.0557334 143.251213,45.6229508 141.859781,45.6229508 C140.44436,45.6229508 139.292848,46.0677551 138.405211,46.957377 L138.405211,46.957377 Z" id="Logo"></path>
            </g>
        </g>
    </g>
</svg>